<svg width="170" height="16" viewBox="0 0 170 16" fill="none" xmlns="http://www.w3.org/2000/svg">
<g clip-path="url(#clip0_37_4064)">
<path d="M40.821 15.4667L47.4321 0.53334H50.1185L56.7506 15.4667H53.8963L48.2086 2.00534H49.3L43.6333 15.4667H40.821ZM43.8642 12.0107L44.5988 9.83467H52.5321L53.2667 12.0107H43.8642Z" fill="#111111"/>
<path d="M58.619 15.4667V0.53334H61.3474V13.12H69.0289V15.4667H58.619Z" fill="#111111"/>
<path d="M71.1829 15.4667V0.53334H77.2273C78.5286 0.53334 79.6409 0.746674 80.5644 1.17334C81.5018 1.60001 82.2224 2.21156 82.7261 3.00801C83.2298 3.80445 83.4817 4.75023 83.4817 5.84534C83.4817 6.94045 83.2298 7.88623 82.7261 8.68267C82.2224 9.47912 81.5018 10.0907 80.5644 10.5173C79.6409 10.944 78.5286 11.1573 77.2273 11.1573H72.694L73.9113 9.85601V15.4667H71.1829ZM73.9113 10.1547L72.694 8.81067H77.1014C78.3047 8.81067 79.2072 8.55467 79.8088 8.04267C80.4245 7.51645 80.7323 6.78401 80.7323 5.84534C80.7323 4.89245 80.4245 4.16001 79.8088 3.64801C79.2072 3.13601 78.3047 2.88001 77.1014 2.88001H72.694L73.9113 1.51467V10.1547Z" fill="#111111"/>
<path d="M96.5322 0.53334H99.2606V15.4667H96.5322V0.53334ZM88.9347 15.4667H86.2063V0.53334H88.9347V15.4667ZM96.7421 9.06667H88.7038V6.69867H96.7421V9.06667Z" fill="#111111"/>
<path d="M101.119 15.4667L107.731 0.53334H110.417L117.049 15.4667H114.195L108.507 2.00534H109.599L103.932 15.4667H101.119ZM104.163 12.0107L104.897 9.83467H112.831L113.565 12.0107H104.163Z" fill="#111111"/>
<path d="M131.518 15.68C130.398 15.68 129.356 15.4951 128.391 15.1253C127.439 14.7413 126.607 14.208 125.893 13.5253C125.194 12.8285 124.648 12.0107 124.256 11.072C123.864 10.1333 123.668 9.10934 123.668 8.00001C123.668 6.89067 123.864 5.86667 124.256 4.92801C124.648 3.98934 125.201 3.17867 125.914 2.49601C126.628 1.79912 127.46 1.26579 128.412 0.896007C129.363 0.512007 130.405 0.320007 131.539 0.320007C132.742 0.320007 133.84 0.533341 134.834 0.960008C135.827 1.37245 136.667 1.99112 137.352 2.81601L135.589 4.50134C135.058 3.91823 134.463 3.48445 133.805 3.20001C133.148 2.90134 132.434 2.75201 131.665 2.75201C130.895 2.75201 130.189 2.88001 129.545 3.13601C128.915 3.39201 128.363 3.75467 127.887 4.22401C127.425 4.69334 127.061 5.24801 126.796 5.88801C126.544 6.52801 126.418 7.23201 126.418 8.00001C126.418 8.76801 126.544 9.47201 126.796 10.112C127.061 10.752 127.425 11.3067 127.887 11.776C128.363 12.2453 128.915 12.608 129.545 12.864C130.189 13.12 130.895 13.248 131.665 13.248C132.434 13.248 133.148 13.1058 133.805 12.8213C134.463 12.5227 135.058 12.0747 135.589 11.4773L137.352 13.184C136.667 13.9947 135.827 14.6133 134.834 15.04C133.84 15.4667 132.735 15.68 131.518 15.68Z" fill="#111111"/>
<path d="M146.517 15.4667V13.1627L146.37 12.672V8.64001C146.37 7.85778 146.139 7.25334 145.678 6.82667C145.216 6.38579 144.516 6.16534 143.579 6.16534C142.949 6.16534 142.327 6.2649 141.711 6.46401C141.109 6.66312 140.599 6.94045 140.179 7.29601L139.151 5.35467C139.752 4.88534 140.466 4.5369 141.291 4.30934C142.131 4.06756 142.998 3.94667 143.894 3.94667C145.517 3.94667 146.769 4.3449 147.651 5.14134C148.546 5.92356 148.994 7.13956 148.994 8.78934V15.4667H146.517ZM142.991 15.616C142.152 15.616 141.417 15.4738 140.788 15.1893C140.158 14.8907 139.668 14.4853 139.319 13.9733C138.983 13.4471 138.815 12.8569 138.815 12.2027C138.815 11.5627 138.962 10.9867 139.256 10.4747C139.563 9.96267 140.06 9.55734 140.746 9.25867C141.431 8.96001 142.341 8.81067 143.474 8.81067H146.727V10.5813H143.663C142.767 10.5813 142.166 10.7307 141.858 11.0293C141.55 11.3138 141.396 11.6693 141.396 12.096C141.396 12.5796 141.585 12.9636 141.963 13.248C142.341 13.5325 142.865 13.6747 143.537 13.6747C144.181 13.6747 144.754 13.5253 145.258 13.2267C145.776 12.928 146.146 12.4871 146.37 11.904L146.811 13.504C146.559 14.1725 146.105 14.6916 145.447 15.0613C144.803 15.4311 143.985 15.616 142.991 15.616Z" fill="#111111"/>
<path d="M155.824 15.616C154.886 15.616 153.984 15.4951 153.116 15.2533C152.263 14.9973 151.584 14.6916 151.08 14.336L152.088 12.3093C152.592 12.6365 153.193 12.9067 153.893 13.12C154.592 13.3333 155.292 13.44 155.992 13.44C156.817 13.44 157.412 13.3262 157.776 13.0987C158.153 12.8711 158.342 12.5653 158.342 12.1813C158.342 11.8685 158.216 11.6338 157.964 11.4773C157.713 11.3067 157.384 11.1787 156.978 11.0933C156.572 11.008 156.117 10.9298 155.614 10.8587C155.124 10.7876 154.627 10.6951 154.124 10.5813C153.634 10.4533 153.186 10.2756 152.78 10.048C152.375 9.80623 152.046 9.48623 151.794 9.08801C151.542 8.68979 151.416 8.16356 151.416 7.50934C151.416 6.78401 151.619 6.15823 152.025 5.63201C152.431 5.09156 152.997 4.67912 153.725 4.39467C154.466 4.09601 155.341 3.94667 156.348 3.94667C157.104 3.94667 157.866 4.03201 158.636 4.20268C159.406 4.37334 160.042 4.61512 160.546 4.92801L159.538 6.95467C159.007 6.62756 158.468 6.40712 157.922 6.29334C157.391 6.16534 156.859 6.10134 156.327 6.10134C155.53 6.10134 154.935 6.22223 154.543 6.46401C154.166 6.70578 153.977 7.01156 153.977 7.38134C153.977 7.72267 154.103 7.97867 154.355 8.14934C154.606 8.32001 154.935 8.45512 155.341 8.55468C155.747 8.65423 156.194 8.73956 156.684 8.81067C157.188 8.86756 157.685 8.96001 158.174 9.08801C158.664 9.21601 159.112 9.39378 159.517 9.62134C159.937 9.83467 160.273 10.1405 160.525 10.5387C160.777 10.9369 160.903 11.456 160.903 12.096C160.903 12.8071 160.693 13.4258 160.273 13.952C159.867 14.4782 159.287 14.8907 158.531 15.1893C157.775 15.4738 156.873 15.616 155.824 15.616Z" fill="#111111"/>
<path d="M167.38 15.616C166.149 15.616 165.198 15.296 164.526 14.656C163.855 14.0018 163.519 13.0418 163.519 11.776V1.55734H166.142V11.712C166.142 12.2525 166.275 12.672 166.541 12.9707C166.821 13.2693 167.206 13.4187 167.695 13.4187C168.283 13.4187 168.773 13.2622 169.164 12.9493L169.899 14.848C169.591 15.104 169.213 15.296 168.766 15.424C168.318 15.552 167.856 15.616 167.38 15.616ZM161.672 6.29334V4.16001H169.143V6.29334H161.672Z" fill="#111111"/>
<path d="M7.5298 0.968413C7.8593 0.388296 8.68306 0.388296 9.01257 0.968413L16.4264 14.021C16.7559 14.6012 16.344 15.3263 15.685 15.3263H0.857352C0.198345 15.3263 -0.213534 14.6012 0.11597 14.021L7.5298 0.968413Z" fill="#30A9DE"/>
<path d="M20.0764 1.59999C20.0764 1.01089 20.5462 0.533325 21.1257 0.533325H33.5803C34.1598 0.533325 34.6296 1.01089 34.6296 1.59999V14.2596C34.6296 14.8487 34.1598 15.3263 33.5803 15.3263H21.1257C20.5462 15.3263 20.0764 14.8487 20.0764 14.2596V1.59999Z" fill="#FF7F50"/>
</g>
<defs>
<clipPath id="clip0_37_4064">
<rect width="170" height="16" fill="white"/>
</clipPath>
</defs>
</svg>
